<svg viewBox="0 0 100 100" xmlns="http://www.w3.org/2000/svg">
<circle cx="50" cy="50" r="50" fill="#FFFFFF"/>
<defs><clipPath id="c"><circle cx="50" cy="50" r="50"/></clipPath></defs><g clip-path="url(#c)">
<circle cx='50' cy='16.5' r='8' fill="#FFFFFF" stroke="#3A342E" stroke-width="2"/>
<path d="M21 101 Q21 74.5 50 74.5 Q79 74.5 79 101" fill="#D9A379" stroke="#3A342E" stroke-width="2"/>
<path d="M42.5 75 Q50 80.5 57.5 75" fill="none" stroke="#3A342E" stroke-width="1.8" stroke-linecap="round"/>
<circle cx="29" cy="47" r="4" fill="#FFFFFF" stroke="#3A342E" stroke-width="1.9"/>
<circle cx="71" cy="47" r="4" fill="#FFFFFF" stroke="#3A342E" stroke-width="1.9"/>
<path d="M44 62 L44 72" stroke="#3A342E" stroke-width="1.8"/>
<path d="M56 62 L56 72" stroke="#3A342E" stroke-width="1.8"/>
<path d="M31.5 42 Q31.5 24.5 50 24.5 Q68.5 24.5 68.5 42 Q68.5 55.5 59.5 61.5 Q54.8 64.8 50 64.8 Q45.2 64.8 40.5 61.5 Q31.5 55.5 31.5 42 Z" fill="#FFFFFF" stroke="#3A342E" stroke-width="2"/>
<path d="M40 41.3 Q43.2 39.8 46.4 41.1" stroke="#3A342E" stroke-width="1.5" fill="none" stroke-linecap="round"/>
<path d="M53.6 41.1 Q56.8 39.8 60 41.3" stroke="#3A342E" stroke-width="1.5" fill="none" stroke-linecap="round"/>
<circle cx="43.3" cy="46.2" r="1.45" fill="#3A342E"/>
<circle cx="56.7" cy="46.2" r="1.45" fill="#3A342E"/>
<path d="M50 47.4 Q51.2 50.4 49.8 51.8" stroke="#3A342E" stroke-width="1.4" fill="none" stroke-linecap="round"/>
<path d="M45.5 56.2 Q50 60 54.5 56.2" stroke="#3A342E" stroke-width="1.7" fill="none" stroke-linecap="round"/>
<circle cx="37.5" cy="52.4" r="1.9" fill="#F3A98C" opacity="0.4"/>
<circle cx="62.5" cy="52.4" r="1.9" fill="#F3A98C" opacity="0.4"/>
<path d='M31 43 Q30.5 23.5 50 23.5 Q69.5 23.5 69 43 Q65 34 57 33 Q50 32 43 33 Q35 34 31 43 Z' fill="#FFFFFF" stroke="#3A342E" stroke-width="2"/>
<path d='M44.5 27.5 Q47 24.8 49 24.6' stroke="#3A342E" stroke-width="1.3" fill="none" stroke-linecap="round"/>
<path d='M55.5 27.5 Q53 24.8 51 24.6' stroke="#3A342E" stroke-width="1.3" fill="none" stroke-linecap="round"/>
</g></svg>
